<svg width="236" height="230" viewBox="0 0 236 230" fill="none" xmlns="http://www.w3.org/2000/svg">
<path d="M105.725 173.923C99.7068 175.025 94.162 173.825 89.0913 170.323C84.0206 166.822 80.9344 162.062 79.8325 156.043C78.7307 150.024 79.9305 144.48 83.4319 139.409C86.9334 134.338 91.6934 131.252 97.7122 130.15C103.731 129.048 109.276 130.248 114.346 133.75C119.417 137.251 122.503 142.011 123.605 148.03C124.707 154.049 123.507 159.593 120.006 164.664C116.504 169.735 111.744 172.821 105.725 173.923ZM171.384 161.903C165.366 163.005 159.821 161.805 154.75 158.303C149.679 154.802 146.593 150.042 145.491 144.023C144.39 138.004 145.589 132.46 149.091 127.389C152.592 122.318 157.352 119.232 163.371 118.13C169.39 117.028 174.934 118.228 180.005 121.73C185.076 125.231 188.162 129.991 189.264 136.01C190.366 142.029 189.166 147.573 185.665 152.644C182.163 157.715 177.403 160.801 171.384 161.903ZM237.043 149.883C231.024 150.985 225.48 149.785 220.409 146.283C215.338 142.782 212.252 138.022 211.15 132.003C210.048 125.984 211.248 120.44 214.75 115.369C218.251 110.298 223.011 107.212 229.03 106.11C235.049 105.008 240.593 106.208 245.664 109.71C250.735 113.211 253.821 117.971 254.923 123.99C256.025 130.009 254.825 135.553 251.323 140.624C247.822 145.695 243.062 148.781 237.043 149.883ZM93.7055 108.264C87.6868 109.366 82.1421 108.166 77.0713 104.665C72.0006 101.163 68.9144 96.4031 67.8125 90.3843C66.7107 84.3656 67.9105 78.8209 71.4119 73.7502C74.9134 68.6795 79.6734 65.5932 85.6922 64.4914C91.7109 63.3896 97.2556 64.5894 102.326 68.0908C107.397 71.5922 110.483 76.3523 111.585 82.371C112.687 88.3897 111.487 93.9344 107.986 99.0051C104.484 104.076 99.7242 107.162 93.7055 108.264ZM159.364 96.2439C153.346 97.3458 147.801 96.146 142.73 92.6446C137.659 89.1431 134.573 84.3831 133.471 78.3643C132.37 72.3456 133.569 66.8009 137.071 61.7302C140.572 56.6595 145.332 53.5732 151.351 52.4714C157.37 51.3696 162.914 52.5694 167.985 56.0708C173.056 59.5722 176.142 64.3323 177.244 70.351C178.346 76.3697 177.146 81.9145 173.645 86.9852C170.143 92.0559 165.383 95.1421 159.364 96.2439ZM225.023 84.224C219.004 85.3258 213.46 84.126 208.389 80.6246C203.318 77.1231 200.232 72.3631 199.13 66.3443C198.028 60.3256 199.228 54.7809 202.73 49.7102C206.231 44.6395 210.991 41.5532 217.01 40.4514C223.029 39.3496 228.573 40.5494 233.644 44.0508C238.715 47.5522 241.801 52.3123 242.903 58.331C244.005 64.3497 242.805 69.8945 239.303 74.9652C235.802 80.0359 231.042 83.1221 225.023 84.224ZM81.6855 42.6051C75.6668 43.707 70.1221 42.5072 65.0514 39.0057C59.9807 35.5043 56.8944 30.7442 55.7926 24.7255C54.6907 18.7068 55.8905 13.1621 59.3919 8.09137C62.8934 3.02067 67.6534 -0.0655986 73.6722 -1.16743C79.6909 -2.26926 85.2356 -1.06947 90.3063 2.43195C95.377 5.93338 98.4633 10.6935 99.5651 16.7122C100.667 22.7309 99.4671 28.2756 95.9657 33.3463C92.4643 38.417 87.7042 41.5033 81.6855 42.6051ZM147.344 30.5851C141.326 31.687 135.781 30.4872 130.71 26.9857C125.639 23.4843 122.553 18.7242 121.451 12.7055C120.35 6.68679 121.549 1.14207 125.051 -3.92863C128.552 -8.99933 133.312 -12.0856 139.331 -13.1874C145.35 -14.2893 150.894 -13.0895 155.965 -9.58804C161.036 -6.08662 164.122 -1.32654 165.224 4.69219C166.326 10.7109 165.126 16.2556 161.625 21.3263C158.123 26.397 153.363 29.4833 147.344 30.5851ZM213.003 18.5651C206.984 19.667 201.44 18.4672 196.369 14.9657C191.298 11.4643 188.212 6.70424 187.11 0.685519C186.008 -5.33321 187.208 -10.8779 190.71 -15.9486C194.211 -21.0193 198.971 -24.1056 204.99 -25.2074C211.009 -26.3093 216.553 -25.1095 221.624 -21.608C226.695 -18.1066 229.781 -13.3465 230.883 -7.32781C231.985 -1.30909 230.785 4.23563 227.283 9.30633C223.782 14.377 219.022 17.4633 213.003 18.5651Z" fill="white"/>
</svg>
