<svg width="403" height="353" viewBox="0 0 403 353" fill="none" xmlns="http://www.w3.org/2000/svg">
<path d="M74.7801 0.700236C68.4683 24.8951 69.1281 48.1707 76.7596 70.527C84.7832 93.8304 99.6219 114.404 121.276 132.247C143.052 150.126 170.105 163.706 202.435 172.988C234.765 182.269 264.841 185.09 292.662 181.45C320.483 177.809 343.975 168.24 363.138 152.741C381.584 137.871 394.55 118.508 402.039 94.6507L325.04 72.5456C320.916 84.873 314.256 94.7758 305.058 102.254C295.151 110.444 282.86 115.398 268.183 117.117C253.66 118.761 237.581 117.052 219.946 111.989C202.189 106.892 187.53 99.7764 175.968 90.6438C164.561 81.4366 156.83 70.7342 152.776 58.5365C149.058 47.3505 148.726 35.44 151.778 22.8051L74.7801 0.700236Z" fill="#E8EAED"/>
<path d="M328.123 352.125C334.434 327.93 333.775 304.655 326.143 282.298C318.119 258.995 303.281 238.421 281.627 220.578C259.851 202.699 232.798 189.119 200.468 179.838C168.138 170.556 138.062 167.736 110.241 171.376C82.4195 175.016 58.9274 184.585 39.7643 200.084C21.3192 214.954 8.35227 234.318 0.863491 258.175L77.8626 280.28C81.9864 267.952 88.647 258.049 97.8444 250.571C107.751 242.381 120.043 237.427 134.72 235.708C149.243 234.064 165.322 235.773 182.956 240.836C200.713 245.934 215.373 253.049 226.934 262.182C238.342 271.389 246.073 282.091 250.127 294.289C253.844 305.475 254.177 317.385 251.124 330.02L328.123 352.125Z" fill="#E8EAED"/>
</svg>
