<svg width="300" height="143" viewBox="0 0 300 143" fill="none" xmlns="http://www.w3.org/2000/svg">
<path fill-rule="evenodd" clip-rule="evenodd" d="M0 0.148315C0.537079 27.4204 6.75513 51.6328 18.6538 72.7805C31.1147 94.8035 48.6839 111.912 71.3607 124.105C94.1498 136.299 120.363 142.396 150 142.396C179.637 142.396 205.794 136.299 228.471 124.105C251.148 111.912 268.717 94.8035 281.178 72.7809C293.184 51.6328 299.458 27.4204 300 0.148315L229.415 0.148315C228.919 14.317 225.686 26.7088 219.715 37.3198C213.316 48.8916 204.111 57.7875 192.099 64.0087C180.199 70.1054 166.166 73.1538 150 73.1538C133.722 73.1538 119.577 70.1054 107.565 64.0087C95.6656 57.7875 86.5161 48.8912 80.1171 37.3198C74.249 26.7088 71.0715 14.317 70.5849 0.148315L0 0.148315Z" fill="#E8EAED"/>
</svg>
