<svg width="236" height="230" viewBox="0 0 236 230" fill="none" xmlns="http://www.w3.org/2000/svg">
<path d="M105.725 173.923C99.7068 175.025 94.162 173.825 89.0913 170.324C84.0206 166.822 80.9344 162.062 79.8325 156.043C78.7307 150.025 79.9305 144.48 83.4319 139.409C86.9334 134.338 91.6934 131.252 97.7122 130.15C103.731 129.049 109.276 130.248 114.346 133.75C119.417 137.251 122.503 142.011 123.605 148.03C124.707 154.049 123.507 159.593 120.006 164.664C116.504 169.735 111.744 172.821 105.725 173.923ZM171.384 161.903C165.366 163.005 159.821 161.805 154.75 158.304C149.679 154.802 146.593 150.042 145.491 144.023C144.39 138.005 145.589 132.46 149.091 127.389C152.592 122.318 157.352 119.232 163.371 118.13C169.39 117.029 174.934 118.228 180.005 121.73C185.076 125.231 188.162 129.991 189.264 136.01C190.366 142.029 189.166 147.573 185.665 152.644C182.163 157.715 177.403 160.801 171.384 161.903ZM237.043 149.883C231.024 150.985 225.48 149.785 220.409 146.284C215.338 142.782 212.252 138.022 211.15 132.003C210.048 125.985 211.248 120.44 214.75 115.369C218.251 110.298 223.011 107.212 229.03 106.11C235.049 105.009 240.593 106.208 245.664 109.71C250.735 113.211 253.821 117.971 254.923 123.99C256.025 130.009 254.825 135.553 251.323 140.624C247.822 145.695 243.062 148.781 237.043 149.883ZM93.7055 108.264C87.6868 109.366 82.1421 108.166 77.0713 104.665C72.0006 101.163 68.9144 96.4032 67.8125 90.3845C66.7107 84.3657 67.9105 78.821 71.4119 73.7503C74.9134 68.6796 79.6734 65.5934 85.6922 64.4915C91.7109 63.3897 97.2556 64.5895 102.326 68.0909C107.397 71.5923 110.483 76.3524 111.585 82.3711C112.687 88.3899 111.487 93.9346 107.986 99.0053C104.484 104.076 99.7242 107.162 93.7055 108.264ZM159.364 96.2441C153.346 97.3459 147.801 96.1461 142.73 92.6447C137.659 89.1433 134.573 84.3832 133.471 78.3645C132.37 72.3457 133.569 66.801 137.071 61.7303C140.572 56.6596 145.332 53.5734 151.351 52.4715C157.37 51.3697 162.914 52.5695 167.985 56.0709C173.056 59.5723 176.142 64.3324 177.244 70.3511C178.346 76.3699 177.146 81.9146 173.645 86.9853C170.143 92.056 165.383 95.1422 159.364 96.2441ZM225.023 84.2241C219.004 85.3259 213.46 84.1261 208.389 80.6247C203.318 77.1233 200.232 72.3632 199.13 66.3445C198.028 60.3257 199.228 54.781 202.73 49.7103C206.231 44.6396 210.991 41.5534 217.01 40.4515C223.029 39.3497 228.573 40.5495 233.644 44.0509C238.715 47.5523 241.801 52.3124 242.903 58.3311C244.005 64.3499 242.805 69.8946 239.303 74.9653C235.802 80.036 231.042 83.1222 225.023 84.2241ZM81.6855 42.6052C75.6668 43.7071 70.1221 42.5073 65.0514 39.0059C59.9807 35.5044 56.8944 30.7444 55.7926 24.7256C54.6907 18.7069 55.8905 13.1622 59.3919 8.09149C62.8934 3.02079 67.6534 -0.0654765 73.6722 -1.16731C79.6909 -2.26914 85.2356 -1.06935 90.3063 2.43208C95.377 5.9335 98.4633 10.6936 99.5651 16.7123C100.667 22.731 99.4671 28.2757 95.9657 33.3464C92.4643 38.4171 87.7042 41.5034 81.6855 42.6052ZM147.344 30.5852C141.326 31.6871 135.781 30.4873 130.71 26.9859C125.639 23.4844 122.553 18.7244 121.451 12.7056C120.35 6.68691 121.549 1.1422 125.051 -3.9285C128.552 -8.99921 133.312 -12.0855 139.331 -13.1873C145.35 -14.2891 150.894 -13.0893 155.965 -9.58792C161.036 -6.08649 164.122 -1.32642 165.224 4.69231C166.326 10.711 165.126 16.2557 161.625 21.3264C158.123 26.3971 153.363 29.4834 147.344 30.5852ZM213.003 18.5653C206.984 19.6671 201.44 18.4673 196.369 14.9659C191.298 11.4644 188.212 6.70437 187.11 0.685641C186.008 -5.33309 187.208 -10.8778 190.71 -15.9485C194.211 -21.0192 198.971 -24.1055 204.99 -25.2073C211.009 -26.3091 216.553 -25.1093 221.624 -21.6079C226.695 -18.1065 229.781 -13.3464 230.883 -7.32769C231.985 -1.30896 230.785 4.23575 227.283 9.30645C223.782 14.3772 219.022 17.4634 213.003 18.5653Z" fill="#4DFFA9"/>
</svg>
