<svg width="190" height="184" viewBox="0 0 190 184" fill="none" xmlns="http://www.w3.org/2000/svg">
<path d="M129.391 183.789L20.8862 147.103L0.852844 37.672L89.3244 -35.0737L197.829 1.612L217.863 111.043L129.391 183.789ZM72.1135 50.0737C75.507 44.9285 79.7225 40.6696 84.7601 37.2969C89.7976 33.9242 95.3257 31.687 101.344 30.5851C107.363 29.4833 113.325 29.6171 119.231 30.9864C125.137 32.3558 130.587 34.8451 135.584 38.4544L165.058 14.1146L93.9321 -9.90448L35.9285 37.754L72.1135 50.0737ZM112.738 154.604L106.178 118.766C95.8613 118.015 86.9759 114.27 79.5215 107.529C72.067 100.788 67.4216 92.4022 65.5852 82.371C65.2179 80.3648 64.9669 78.4786 64.8321 76.7126C64.6973 74.9465 64.7365 73.1015 64.9498 71.1775L27.2466 58.2874L40.4185 130.239L112.738 154.604ZM113.364 96.244C119.383 95.1421 124.143 92.0559 127.645 86.9852C131.146 81.9145 132.346 76.3697 131.244 70.351C130.142 64.3323 127.056 59.5722 121.985 56.0708C116.915 52.5694 111.37 51.3696 105.351 52.4714C99.3324 53.5732 94.5723 56.6595 91.0709 61.7302C87.5694 66.8009 86.3696 72.3456 87.4715 78.3643C88.5733 84.3831 91.6596 89.1432 96.7303 92.6446C101.801 96.146 107.346 97.3458 113.364 96.244ZM134.625 150.598L193.622 102.192L180.451 30.2407L149.759 55.6516C150.64 57.3753 151.33 59.0868 151.83 60.7861C152.33 62.4854 152.763 64.3381 153.13 66.3444C154.967 76.3756 153.593 85.8634 149.01 94.8078C144.427 103.752 137.445 110.403 128.064 114.759L134.625 150.598Z" fill="#4DFFA9"/>
</svg>
