<svg width="236" height="230" viewBox="0 0 236 230" fill="none" xmlns="http://www.w3.org/2000/svg">
<g clip-path="url(#clip0_980_60)">
<path d="M41.9195 72.5048L25.8928 -15.0403L113.438 -31.0669L129.465 56.4782L41.9195 72.5048ZM59.7991 46.6119L103.572 38.5986L95.5583 -5.174L51.7858 2.83933L59.7991 46.6119ZM65.9595 203.822L49.9328 116.277L137.478 100.251L153.505 187.796L65.9595 203.822ZM83.8391 177.93L127.612 169.916L119.598 126.144L75.8258 134.157L83.8391 177.93ZM173.237 48.4648L157.21 -39.0803L244.756 -55.1069L260.782 32.4382L173.237 48.4648ZM191.117 22.5719L234.889 14.5586L226.876 -29.214L183.103 -21.2007L191.117 22.5719ZM197.277 179.782L181.25 92.2374L268.796 76.2107L284.822 163.756L197.277 179.782ZM215.157 153.89L258.929 145.876L250.916 102.104L207.143 110.117L215.157 153.89Z" fill="#4DFFA9"/>
</g>
<defs>
<clipPath id="clip0_980_60">
<rect width="267" height="267" fill="white" transform="translate(0 -32.9199) rotate(-10.3741)"/>
</clipPath>
</defs>
</svg>
