<svg width="236" height="230" viewBox="0 0 236 230" fill="none" xmlns="http://www.w3.org/2000/svg">
<path d="M110.659 139.09L90.6252 29.6586L200.057 9.62531L220.09 119.057L110.659 139.09ZM128.538 113.197L194.197 101.177L182.177 35.5183L116.518 47.5382L128.538 113.197ZM66.886 147.103L62.8793 125.217L84.7656 121.21L88.7723 143.097L66.886 147.103ZM50.8594 59.5582L46.8527 37.672L68.739 33.6653L72.7456 55.5516L50.8594 59.5582ZM118.672 182.863L114.665 160.976L136.552 156.97L140.558 178.856L118.672 182.863ZM86.6186 7.77236L82.6119 -14.1139L104.498 -18.1206L108.505 3.7657L86.6186 7.77236ZM206.217 166.836L202.21 144.95L224.097 140.943L228.103 162.829L206.217 166.836ZM174.164 -8.2543L170.157 -30.1406L192.043 -34.1472L196.05 -12.261L174.164 -8.2543ZM241.976 115.05L237.97 93.1638L259.856 89.1571L263.862 111.043L241.976 115.05ZM225.95 27.5049L221.943 5.61865L243.829 1.61198L247.836 23.4983L225.95 27.5049Z" fill="#4DFFA9"/>
</svg>
