<svg width="1400" height="293" viewBox="0 0 1400 293" fill="none" xmlns="http://www.w3.org/2000/svg">
<path d="M0.799316 287.96V3.5121H52.7725V252.141H121.602V287.96H0.799316ZM148.606 287.96V3.5121H268.004V40.0339H200.579V121.857H253.606V158.027H200.579V252.141H268.706V287.96H148.606ZM327.259 287.96V41.7897H281.958V3.5121H423.831V41.7897H379.233V287.96H327.259ZM436.363 100.084V3.5121H476.748L460.243 100.084H436.363ZM573.816 291.823C556.726 291.823 542.445 288.546 530.973 281.99C519.502 275.201 510.84 265.368 504.987 252.492C499.134 239.616 495.856 223.813 495.154 205.084L539.753 196.305C540.221 207.308 541.509 217.024 543.616 225.452C545.957 233.88 549.351 240.435 553.8 245.117C558.482 249.566 564.569 251.79 572.06 251.79C580.489 251.79 586.458 249.332 589.97 244.415C593.482 239.265 595.238 232.827 595.238 225.101C595.238 212.693 592.428 202.509 586.81 194.549C581.191 186.589 573.699 178.629 564.335 170.669L528.515 139.064C518.448 130.402 510.371 120.803 504.285 110.268C498.432 99.4987 495.505 86.2713 495.505 70.5857C495.505 48.1108 502.06 30.7864 515.171 18.6125C528.281 6.43852 546.191 0.351562 568.9 0.351562C582.244 0.351562 593.365 2.45859 602.261 6.67263C611.157 10.6526 618.181 16.2713 623.331 23.5288C628.716 30.7864 632.696 39.0974 635.271 48.462C637.846 57.5924 639.485 67.3081 640.188 77.6091L595.94 85.3349C595.472 76.4385 594.418 68.4787 592.78 61.4553C591.375 54.4319 588.682 48.9302 584.703 44.9502C580.957 40.9703 575.338 38.9803 567.846 38.9803C560.121 38.9803 554.151 41.5556 549.937 46.7061C545.957 51.6225 543.967 57.8265 543.967 65.3181C543.967 74.9168 545.957 82.8767 549.937 89.1977C553.917 95.2847 559.652 101.606 567.144 108.161L602.612 139.415C614.318 149.248 624.268 160.837 632.462 174.181C640.89 187.291 645.104 203.211 645.104 221.94C645.104 235.519 642.06 247.576 635.973 258.111C630.121 268.646 621.81 276.957 611.04 283.044C600.505 288.897 588.097 291.823 573.816 291.823ZM789.543 287.96V41.7897H744.242V3.5121H886.115V41.7897H841.516V287.96H789.543ZM890.734 287.96L947.623 3.5121H1003.11L1060 287.96H1011.89L1000.65 222.291H951.135L939.546 287.96H890.734ZM956.403 189.281H995.031L975.717 69.8834L956.403 189.281ZM1088.61 287.96V3.5121H1140.58V252.141H1209.41V287.96H1088.61ZM1236.41 287.96V3.5121H1288.39V128.529L1344.57 3.5121H1394.09L1339.66 130.636L1399.71 287.96H1348.09L1300.33 158.378L1288.39 180.151V287.96H1236.41Z" fill="#4DFFA9"/>
</svg>
