<svg width="1556" height="220" viewBox="0 0 1556 220" fill="none" xmlns="http://www.w3.org/2000/svg">
<path d="M61.4245 220C46.2449 220 34.1541 217.173 25.1523 211.518C16.1504 205.863 9.70789 197.735 5.82473 187.133C1.94158 176.53 0 163.984 0 149.494V69.1807C0 54.6908 1.94158 42.3213 5.82473 32.0723C9.70789 21.6466 16.1504 13.6948 25.1523 8.21687C34.1541 2.73896 46.2449 0 61.4245 0C76.9571 0 89.1361 2.73896 97.9614 8.21687C106.963 13.6948 113.406 21.6466 117.289 32.0723C121.349 42.3213 123.378 54.6908 123.378 69.1807V149.759C123.378 164.072 121.349 176.53 117.289 187.133C113.406 197.558 106.963 205.687 97.9614 211.518C89.1361 217.173 76.9571 220 61.4245 220ZM61.4245 191.108C67.9552 191.108 72.7209 189.695 75.7215 186.867C78.8987 184.04 81.0167 180.153 82.0758 175.205C83.1348 170.257 83.6643 164.867 83.6643 159.036V60.1687C83.6643 54.1607 83.1348 48.7711 82.0758 44C81.0167 39.2289 78.8987 35.5181 75.7215 32.8675C72.7209 30.0402 67.9552 28.6265 61.4245 28.6265C55.2467 28.6265 50.5693 30.0402 47.3921 32.8675C44.215 35.5181 42.0969 39.2289 41.0379 44C39.9788 48.7711 39.4493 54.1607 39.4493 60.1687V159.036C39.4493 164.867 39.8906 170.257 40.7731 175.205C41.8322 180.153 43.9503 184.04 47.1274 186.867C50.3045 189.695 55.0702 191.108 61.4245 191.108Z" fill="#E8EAED" fill-opacity="0.4"/>
<path d="M211.14 220C195.255 220 182.899 217.084 174.074 211.253C165.249 205.422 159.159 197.116 155.805 186.337C152.452 175.558 150.775 162.659 150.775 147.639V2.38554H188.9V152.145C188.9 158.859 189.342 165.221 190.224 171.229C191.107 177.06 193.137 181.831 196.314 185.542C199.667 189.076 204.61 190.843 211.14 190.843C218.024 190.843 222.966 189.076 225.967 185.542C229.144 181.831 231.174 177.06 232.056 171.229C233.115 165.221 233.645 158.859 233.645 152.145V2.38554H271.506V147.639C271.506 162.659 269.829 175.558 266.475 186.337C263.122 197.116 257.032 205.422 248.207 211.253C239.558 217.084 227.202 220 211.14 220Z" fill="#E8EAED" fill-opacity="0.4"/>
<path d="M302.326 217.084V2.38554H353.689C368.163 2.38554 380.342 4.15262 390.226 7.68676C400.287 11.0442 407.877 16.8755 412.995 25.1807C418.291 33.486 420.938 44.7952 420.938 59.1084C420.938 67.7671 420.144 75.5422 418.555 82.4337C416.967 89.3253 414.231 95.245 410.348 100.193C406.641 104.964 401.434 108.675 394.727 111.325L424.645 217.084H385.46L359.514 118.747H341.51V217.084H302.326ZM341.51 94.0964H353.689C361.279 94.0964 367.28 93.0362 371.693 90.9157C376.282 88.6185 379.547 85.0844 381.489 80.3133C383.431 75.3655 384.401 69.0924 384.401 61.494C384.401 50.7149 382.371 42.6747 378.312 37.3735C374.429 31.8956 366.927 29.1566 355.807 29.1566H341.51V94.0964Z" fill="#E8EAED" fill-opacity="0.4"/>
<path d="M515.116 217.084V2.38554H578.13C591.015 2.38554 601.428 4.77109 609.371 9.54217C617.491 14.3133 623.404 21.2932 627.11 30.4819C630.993 39.494 632.935 50.4498 632.935 63.3494C632.935 77.3092 630.552 88.6185 625.786 97.2771C621.021 105.759 614.313 111.944 605.665 115.831C597.192 119.719 587.131 121.663 575.482 121.663H554.301V217.084H515.116ZM554.301 94.0964H569.128C576.188 94.0964 581.66 93.1245 585.543 91.1807C589.602 89.0602 592.338 85.7912 593.75 81.3735C595.339 76.7791 596.133 70.6827 596.133 63.0843C596.133 55.3092 595.516 49.0362 594.28 44.2651C593.221 39.3173 590.75 35.6948 586.867 33.3976C583.16 31.1004 577.247 29.9518 569.128 29.9518H554.301V94.0964Z" fill="#E8EAED" fill-opacity="0.4"/>
<path d="M632.505 217.084L675.396 2.38554H717.228L760.119 217.084H723.847L715.375 167.518H678.044L669.306 217.084H632.505ZM682.015 142.602H711.139L696.577 52.4819L682.015 142.602Z" fill="#E8EAED" fill-opacity="0.4"/>
<path d="M781.687 217.084V2.38554H833.051C847.524 2.38554 859.703 4.15262 869.587 7.68676C879.648 11.0442 887.238 16.8755 892.357 25.1807C897.652 33.486 900.3 44.7952 900.3 59.1084C900.3 67.7671 899.505 75.5422 897.917 82.4337C896.328 89.3253 893.592 95.245 889.709 100.193C886.003 104.964 880.796 108.675 874.088 111.325L904.006 217.084H864.822L838.875 118.747H820.872V217.084H781.687ZM820.872 94.0964H833.051C840.64 94.0964 846.641 93.0362 851.054 90.9157C855.643 88.6185 858.909 85.0844 860.85 80.3133C862.792 75.3655 863.763 69.0924 863.763 61.494C863.763 50.7149 861.733 42.6747 857.673 37.3735C853.79 31.8956 846.289 29.1566 835.169 29.1566H820.872V94.0964Z" fill="#E8EAED" fill-opacity="0.4"/>
<path d="M950.509 217.084V31.2771H916.355V2.38554H1023.32V31.2771H989.694V217.084H950.509Z" fill="#E8EAED" fill-opacity="0.4"/>
<path d="M1042.83 217.084V2.38554H1070.1L1122.26 124.843V2.38554H1154.56V217.084H1128.61L1076.19 88.7952V217.084H1042.83Z" fill="#E8EAED" fill-opacity="0.4"/>
<path d="M1187.1 217.084V2.38554H1277.12V29.9518H1226.29V91.7109H1266.26V119.012H1226.29V190.048H1277.65V217.084H1187.1Z" fill="#E8EAED" fill-opacity="0.4"/>
<path d="M1300.35 217.084V2.38554H1351.71C1366.19 2.38554 1378.36 4.15262 1388.25 7.68676C1398.31 11.0442 1405.9 16.8755 1411.02 25.1807C1416.31 33.486 1418.96 44.7952 1418.96 59.1084C1418.96 67.7671 1418.17 75.5422 1416.58 82.4337C1414.99 89.3253 1412.25 95.245 1408.37 100.193C1404.66 104.964 1399.46 108.675 1392.75 111.325L1422.67 217.084H1383.48L1357.54 118.747H1339.53V217.084H1300.35ZM1339.53 94.0964H1351.71C1359.3 94.0964 1365.3 93.0362 1369.72 90.9157C1374.31 88.6185 1377.57 85.0844 1379.51 80.3133C1381.45 75.3655 1382.42 69.0924 1382.42 61.494C1382.42 50.7149 1380.39 42.6747 1376.33 37.3735C1372.45 31.8956 1364.95 29.1566 1353.83 29.1566H1339.53V94.0964Z" fill="#E8EAED" fill-opacity="0.4"/>
<path d="M1502.25 220C1489.37 220 1478.6 217.526 1469.95 212.578C1461.3 207.454 1454.77 200.032 1450.36 190.313C1445.95 180.594 1443.48 168.667 1442.95 154.53L1476.57 147.904C1476.92 156.209 1477.9 163.542 1479.48 169.904C1481.25 176.265 1483.81 181.213 1487.16 184.747C1490.69 188.104 1495.28 189.783 1500.93 189.783C1507.28 189.783 1511.78 187.928 1514.43 184.217C1517.08 180.329 1518.4 175.47 1518.4 169.639C1518.4 160.273 1516.29 152.586 1512.05 146.578C1507.81 140.57 1502.17 134.562 1495.1 128.554L1468.1 104.699C1460.51 98.1607 1454.42 90.9157 1449.83 82.9639C1445.42 74.8354 1443.21 64.8514 1443.21 53.0121C1443.21 36.0482 1448.15 22.9719 1458.04 13.7831C1467.92 4.59438 1481.43 0 1498.55 0C1508.61 0 1516.99 1.59036 1523.7 4.77109C1530.41 7.77511 1535.7 12.0161 1539.58 17.494C1543.64 22.9719 1546.64 29.245 1548.59 36.3133C1550.53 43.2048 1551.76 50.5382 1552.29 58.3133L1518.93 64.1446C1518.58 57.4297 1517.79 51.4217 1516.55 46.1205C1515.49 40.8193 1513.46 36.6667 1510.46 33.6627C1507.64 30.6586 1503.4 29.1566 1497.75 29.1566C1491.93 29.1566 1487.43 31.1004 1484.25 34.988C1481.25 38.6988 1479.75 43.3815 1479.75 49.0362C1479.75 56.2811 1481.25 62.2892 1484.25 67.0602C1487.25 71.6546 1491.57 76.4257 1497.22 81.3735L1523.96 104.964C1532.79 112.386 1540.29 121.133 1546.47 131.205C1552.82 141.1 1556 153.116 1556 167.253C1556 177.502 1553.71 186.602 1549.12 194.554C1544.7 202.506 1538.44 208.779 1530.32 213.374C1522.38 217.791 1513.02 220 1502.25 220Z" fill="#E8EAED" fill-opacity="0.4"/>
</svg>
