<svg width="37" height="561" viewBox="0 0 37 561" fill="none" xmlns="http://www.w3.org/2000/svg">
<path d="M28.2929 560.707C28.6834 561.098 29.3166 561.098 29.7071 560.707L36.071 554.343C36.4616 553.953 36.4616 553.319 36.071 552.929C35.6805 552.538 35.0474 552.538 34.6568 552.929L29 558.586L23.3431 552.929C22.9526 552.538 22.3194 552.538 21.9289 552.929C21.5384 553.319 21.5384 553.953 21.9289 554.343L28.2929 560.707ZM28 110L28 560L30 560L30 110L28 110Z" fill="white"/>
<path d="M29.216 91.904C29.216 93.024 28.976 93.96 28.496 94.712C28.016 95.448 27.352 96.008 26.504 96.392C25.656 96.776 24.672 97 23.552 97.064L22.904 94.664C23.592 94.616 24.256 94.512 24.896 94.352C25.536 94.176 26.064 93.896 26.48 93.512C26.88 93.128 27.08 92.592 27.08 91.904C27.08 91.2 26.888 90.672 26.504 90.32C26.104 89.952 25.536 89.768 24.8 89.768C23.92 89.768 23.216 89.968 22.688 90.368C22.144 90.768 21.6 91.272 21.056 91.88L18.176 95.144C17.616 95.784 17.008 96.256 16.352 96.56C15.68 96.864 14.856 97.016 13.88 97.016C12.456 97.016 11.352 96.608 10.568 95.792C9.784 94.976 9.392 93.864 9.392 92.456C9.392 91.688 9.496 91.016 9.704 90.44C9.896 89.848 10.2 89.36 10.616 88.976C11.032 88.576 11.56 88.264 12.2 88.04C12.824 87.8 13.56 87.64 14.408 87.56L15.032 89.864C14.392 89.912 13.808 90.008 13.28 90.152C12.736 90.296 12.304 90.552 11.984 90.92C11.648 91.272 11.48 91.784 11.48 92.456C11.48 93.128 11.664 93.656 12.032 94.04C12.384 94.408 12.912 94.592 13.616 94.592C14.208 94.592 14.696 94.496 15.08 94.304C15.464 94.096 15.856 93.768 16.256 93.32L19.136 90.032C19.776 89.296 20.544 88.648 21.44 88.088C22.32 87.528 23.368 87.248 24.584 87.248C25.544 87.248 26.376 87.448 27.08 87.848C27.768 88.248 28.296 88.8 28.664 89.504C29.032 90.192 29.216 90.992 29.216 91.904ZM29.192 81.5682C29.192 82.7042 28.968 83.5682 28.52 84.1602C28.056 84.7362 27.408 85.1282 26.576 85.3362C25.744 85.5282 24.776 85.6242 23.672 85.6242L20.48 85.6242C19.312 85.6242 18.32 85.5202 17.504 85.3122C16.672 85.1042 16.04 84.7122 15.608 84.1362C15.16 83.5442 14.936 82.6882 14.936 81.5682C14.936 80.5602 15.104 79.7842 15.44 79.2402C15.76 78.6802 16.248 78.2962 16.904 78.0882C17.544 77.8802 18.344 77.7762 19.304 77.7762L20.12 77.7762L20.12 80.1042L19.28 80.1042C18.672 80.1042 18.192 80.1442 17.84 80.2242C17.488 80.3042 17.232 80.4482 17.072 80.6562C16.912 80.8642 16.832 81.1602 16.832 81.5442C16.832 81.9602 16.928 82.2802 17.12 82.5042C17.312 82.7282 17.64 82.8802 18.104 82.9602C18.552 83.0242 19.168 83.0562 19.952 83.0562L24.32 83.0562C25.504 83.0562 26.296 82.9442 26.696 82.7202C27.096 82.4962 27.296 82.0962 27.296 81.5202C27.296 81.0882 27.2 80.7762 27.008 80.5842C26.8 80.3762 26.512 80.2482 26.144 80.2002C25.776 80.1362 25.36 80.1042 24.896 80.1042L23.768 80.1042L23.768 77.7762L24.728 77.7762C25.656 77.7762 26.456 77.8882 27.128 78.1122C27.8 78.3202 28.312 78.7042 28.664 79.2642C29.016 79.8082 29.192 80.5762 29.192 81.5682ZM29 75.4211L15.128 75.4211L15.128 72.8531L17.096 72.8531C16.248 72.3411 15.68 71.8291 15.392 71.3171C15.104 70.8051 14.96 70.2931 14.96 69.7811C14.96 69.7171 14.96 69.6611 14.96 69.6131C14.96 69.5491 14.968 69.4691 14.984 69.3731L17.816 69.3731C17.736 69.5651 17.672 69.7891 17.624 70.0451C17.56 70.2851 17.528 70.5331 17.528 70.7891C17.528 71.1891 17.624 71.5571 17.816 71.8931C17.992 72.2131 18.344 72.5331 18.872 72.8531L29 72.8531L29 75.4211ZM29.192 64.0364C29.192 65.0604 28.984 65.8684 28.568 66.4604C28.152 67.0524 27.56 67.4764 26.792 67.7324C26.024 67.9724 25.12 68.0924 24.08 68.0924L20.048 68.0924C19.008 68.0924 18.104 67.9724 17.336 67.7324C16.568 67.4764 15.976 67.0524 15.56 66.4604C15.144 65.8684 14.936 65.0604 14.936 64.0364C14.936 63.0124 15.144 62.2124 15.56 61.6364C15.976 61.0444 16.568 60.6284 17.336 60.3884C18.104 60.1324 19.008 60.0044 20.048 60.0044L24.08 60.0044C25.12 60.0044 26.024 60.1324 26.792 60.3884C27.56 60.6284 28.152 61.0444 28.568 61.6364C28.984 62.2124 29.192 63.0124 29.192 64.0364ZM27.296 64.0364C27.296 63.5404 27.152 63.1964 26.864 63.0044C26.576 62.7964 26.2 62.6764 25.736 62.6444C25.256 62.5964 24.76 62.5724 24.248 62.5724L19.904 62.5724C19.376 62.5724 18.88 62.5964 18.416 62.6444C17.952 62.6764 17.576 62.7964 17.288 63.0044C16.984 63.1964 16.832 63.5404 16.832 64.0364C16.832 64.5324 16.984 64.8844 17.288 65.0924C17.576 65.3004 17.952 65.4284 18.416 65.4764C18.88 65.5084 19.376 65.5244 19.904 65.5244L24.248 65.5244C24.76 65.5244 25.256 65.5084 25.736 65.4764C26.2 65.4284 26.576 65.3004 26.864 65.0924C27.152 64.8844 27.296 64.5324 27.296 64.0364ZM29 57.4171L9.56 57.4171L9.56 54.8491L29 54.8491L29 57.4171ZM29 51.9327L9.56 51.9327L9.56 49.3647L29 49.3647L29 51.9327Z" fill="white"/>
<path d="M29 0L29 35" stroke="white" stroke-width="2"/>
</svg>
