<svg width="445" height="211" viewBox="0 0 445 211" fill="none" xmlns="http://www.w3.org/2000/svg">
<path fill-rule="evenodd" clip-rule="evenodd" d="M445 211C444.203 170.546 434.98 134.631 417.33 103.262C398.847 70.5948 372.786 45.2176 339.148 27.1306C305.344 9.04353 266.461 2.75854e-08 222.5 2.75854e-08C178.538 -0.000576727 139.738 9.04295 106.101 27.1306C72.4633 45.217 46.4026 70.5948 27.9187 103.262C10.11 134.631 0.803802 170.546 0 211H104.702C105.436 189.983 110.232 171.602 119.089 155.862C128.581 138.697 142.236 125.502 160.054 116.274C177.705 107.23 198.52 102.708 222.5 102.708C246.645 102.708 267.627 107.23 285.445 116.274C303.096 125.502 316.668 138.698 326.16 155.862C334.864 171.602 339.577 189.983 340.299 211H445Z" fill="#E8EAED"/>
</svg>
