<svg width="55" height="48" viewBox="0 0 55 48" fill="none" xmlns="http://www.w3.org/2000/svg">
<path d="M2.40431e-05 0C0.0983015 4.47921 1.23613 8.45538 3.41351 11.9285C5.69382 15.5454 8.90884 18.3551 13.0586 20.3576C17.2289 22.3602 22.0257 23.3615 27.4491 23.3615C32.8726 23.3615 37.6592 22.3602 41.8089 20.3576C45.9586 18.3551 49.1737 15.5454 51.454 11.9285C53.651 8.45538 54.799 4.47921 54.8982 0H41.9815C41.8909 2.32706 41.2992 4.36198 40.2065 6.10474C39.0356 8.00513 37.351 9.46617 35.1529 10.4879C32.9753 11.4892 30.4074 11.9898 27.4491 11.9898C24.4704 11.9898 21.8819 11.4892 19.6838 10.4879C17.5062 9.46617 15.8319 8.00513 14.661 6.10474C13.5871 4.36198 13.0057 2.32706 12.9166 0H2.40431e-05Z" fill="#4DFFA9"/>
<path d="M54.8982 48C54.7999 43.5208 53.6621 39.5446 51.4847 36.0715C49.2044 32.4546 45.9894 29.6449 41.8396 27.6424C37.6693 25.6398 32.8725 24.6385 27.4491 24.6385C22.0256 24.6385 17.2391 25.6398 13.0893 27.6424C8.93957 29.6449 5.72454 32.4546 3.44424 36.0715C1.24724 39.5446 0.0991624 43.5208 0 48H12.9167C13.0073 45.6729 13.599 43.638 14.6917 41.8953C15.8627 39.9949 17.5472 38.5338 19.7453 37.5121C21.9229 36.5108 24.4908 36.0102 27.4491 36.0102C30.4278 36.0102 33.0163 36.5108 35.2144 37.5121C37.392 38.5338 39.0663 39.9949 40.2373 41.8953C41.3111 43.638 41.8925 45.6729 41.9816 48H54.8982Z" fill="#4DFFA9"/>
</svg>
