<svg width="43" height="46" viewBox="0 0 43 46" fill="none" xmlns="http://www.w3.org/2000/svg">
<path fill-rule="evenodd" clip-rule="evenodd" d="M6.14286 16.2895C6.14286 13.9914 6.62036 11.808 7.47892 9.83844C9.78228 8.42037 12.4771 7.60526 15.3571 7.60526H21.5C29.9815 7.60526 36.8571 14.6745 36.8571 23.3947V29.7105C36.8571 32.0086 36.3796 34.192 35.5211 36.1616C33.2177 37.5796 30.5229 38.3947 27.6429 38.3947H21.5C13.0185 38.3947 6.14286 31.3256 6.14286 22.6053V16.2895ZM35.5211 36.1616C40.001 33.4035 43 28.3645 43 22.6053V16.2895C43 7.56919 36.1244 0.5 27.6429 0.5H21.5C15.2536 0.5 9.87827 4.33423 7.47892 9.83844C2.99898 12.5965 0 17.6355 0 23.3947V29.7105C0 38.4308 6.87563 45.5 15.3571 45.5H21.5C27.7464 45.5 33.1217 41.6658 35.5211 36.1616ZM38.3929 38.3947C37.1206 38.3947 36.0893 39.4551 36.0893 40.7632V43.1316C36.0893 44.4396 37.1206 45.5 38.3929 45.5H40.6964C41.9687 45.5 43 44.4396 43 43.1316V40.7632C43 39.4551 41.9687 38.3947 40.6964 38.3947H38.3929Z" fill="#4DFFA9"/>
</svg>
