<svg width="249" height="46" viewBox="0 0 249 46" fill="none" xmlns="http://www.w3.org/2000/svg">
<path fill-rule="evenodd" clip-rule="evenodd" d="M6.14286 16.2895C6.14286 13.9914 6.62036 11.808 7.47892 9.83844C9.78228 8.42037 12.4771 7.60526 15.3571 7.60526H21.5C29.9815 7.60526 36.8571 14.6745 36.8571 23.3947V29.7105C36.8571 32.0086 36.3796 34.192 35.5211 36.1616C33.2177 37.5796 30.5229 38.3947 27.6429 38.3947H21.5C13.0185 38.3947 6.14286 31.3256 6.14286 22.6053V16.2895ZM35.5211 36.1616C40.001 33.4035 43 28.3645 43 22.6053V16.2895C43 7.56919 36.1244 0.5 27.6429 0.5H21.5C15.2536 0.5 9.87827 4.33423 7.47892 9.83844C2.99898 12.5965 0 17.6355 0 23.3947V29.7105C0 38.4308 6.87563 45.5 15.3571 45.5H21.5C27.7464 45.5 33.1217 41.6658 35.5211 36.1616ZM38.3929 38.3947C37.1206 38.3947 36.0893 39.4551 36.0893 40.7632V43.1316C36.0893 44.4396 37.1206 45.5 38.3929 45.5H40.6964C41.9687 45.5 43 44.4396 43 43.1316V40.7632C43 39.4551 41.9687 38.3947 40.6964 38.3947H38.3929Z" fill="#4DFFA9"/>
<path d="M59.588 11.8745V9.08734H63.8064C64.3585 9.08734 64.8589 8.97853 65.3075 8.76092C65.756 8.5433 66.1097 8.23362 66.3685 7.83188C66.6273 7.41339 66.7567 6.91121 66.7567 6.32533C66.7567 5.75619 66.6273 5.26237 66.3685 4.84389C66.1097 4.4254 65.756 4.10735 65.3075 3.88974C64.8589 3.67213 64.3585 3.56332 63.8064 3.56332H59.588V0.776202H64.1687C65.3247 0.776202 66.3599 1.00218 67.2743 1.45415C68.206 1.90611 68.9393 2.55058 69.4741 3.38755C70.009 4.20779 70.2764 5.18705 70.2764 6.32533C70.2764 7.46361 70.009 8.45124 69.4741 9.28821C68.9393 10.1084 68.206 10.7445 67.2743 11.1965C66.3599 11.6485 65.3247 11.8745 64.1687 11.8745H59.588ZM57 18.4279V0.776202H60.5197V18.4279H57Z" fill="black"/>
<path d="M77.2316 18.679C76.0929 18.679 75.0664 18.4028 74.1519 17.8504C73.2375 17.298 72.5215 16.5448 72.0039 15.5906C71.4863 14.6365 71.2275 13.5651 71.2275 12.3766C71.2275 11.1714 71.4863 10.0917 72.0039 9.13756C72.5215 8.18341 73.2375 7.43013 74.1519 6.87773C75.0664 6.32533 76.0929 6.04913 77.2316 6.04913C78.1288 6.04913 78.9311 6.22489 79.6385 6.57642C80.3459 6.92795 80.9066 7.42176 81.3207 8.05786C81.752 8.67722 81.9849 9.38028 82.0194 10.167V14.536C81.9849 15.3395 81.752 16.0509 81.3207 16.6703C80.9066 17.2897 80.3459 17.7835 79.6385 18.1517C78.9311 18.5033 78.1288 18.679 77.2316 18.679ZM77.8528 15.6408C78.8017 15.6408 79.5695 15.3395 80.1561 14.7369C80.7427 14.1175 81.036 13.3224 81.036 12.3515C81.036 11.7154 80.898 11.1547 80.6219 10.6692C80.3631 10.167 79.9922 9.78202 79.5091 9.51419C79.0432 9.22962 78.4911 9.08734 77.8528 9.08734C77.2316 9.08734 76.6795 9.22962 76.1964 9.51419C75.7306 9.78202 75.3597 10.167 75.0836 10.6692C74.8248 11.1547 74.6954 11.7154 74.6954 12.3515C74.6954 13.0044 74.8248 13.5819 75.0836 14.0841C75.3597 14.5695 75.7306 14.9545 76.1964 15.2391C76.6795 15.5069 77.2316 15.6408 77.8528 15.6408ZM80.8548 18.4279V15.1638L81.3983 12.2009L80.8548 9.28821V6.30022H84.2192V18.4279H80.8548Z" fill="black"/>
<path d="M91.1522 18.5284L85.9245 6.30022H89.5994L93.0673 15.6408H91.8251L95.4224 6.30022H99.1232L93.559 18.5033L91.1522 18.5284ZM87.6843 23.5L91.4887 15.691L93.559 18.5033L91.2816 23.5H87.6843Z" fill="black"/>
<path d="M100.538 18.4279V6.30022H103.928V18.4279H100.538ZM108.69 18.4279V11.2718C108.69 10.5688 108.457 10.0247 107.991 9.63974C107.542 9.23799 106.982 9.03712 106.309 9.03712C105.86 9.03712 105.455 9.12919 105.092 9.31332C104.73 9.48071 104.445 9.73181 104.238 10.0666C104.031 10.4014 103.928 10.8031 103.928 11.2718L102.608 10.6441C102.608 9.7067 102.815 8.89483 103.229 8.20852C103.66 7.5222 104.238 6.99491 104.963 6.62664C105.688 6.24163 106.507 6.04913 107.422 6.04913C108.284 6.04913 109.069 6.24163 109.777 6.62664C110.484 6.99491 111.045 7.5222 111.459 8.20852C111.873 8.87809 112.08 9.68996 112.08 10.6441V18.4279H108.69ZM116.842 18.4279V11.2718C116.842 10.5688 116.609 10.0247 116.143 9.63974C115.695 9.23799 115.134 9.03712 114.461 9.03712C114.03 9.03712 113.624 9.12919 113.245 9.31332C112.882 9.48071 112.598 9.73181 112.391 10.0666C112.184 10.4014 112.08 10.8031 112.08 11.2718L110.139 10.8199C110.208 9.84898 110.475 9.01201 110.941 8.30895C111.407 7.58916 112.02 7.03675 112.779 6.65175C113.538 6.25 114.383 6.04913 115.315 6.04913C116.247 6.04913 117.083 6.24163 117.825 6.62664C118.567 6.99491 119.154 7.53057 119.585 8.23362C120.016 8.93668 120.232 9.77365 120.232 10.7445V18.4279H116.842Z" fill="black"/>
<path d="M128.959 18.679C127.647 18.679 126.483 18.4112 125.465 17.8755C124.447 17.3231 123.636 16.5699 123.032 15.6157C122.445 14.6616 122.152 13.5735 122.152 12.3515C122.152 11.1463 122.437 10.075 123.006 9.13756C123.593 8.18341 124.386 7.43013 125.387 6.87773C126.388 6.30859 127.501 6.02402 128.726 6.02402C129.933 6.02402 130.994 6.29185 131.909 6.82751C132.841 7.34643 133.565 8.06623 134.083 8.9869C134.618 9.89083 134.885 10.9203 134.885 12.0753C134.885 12.2929 134.868 12.5189 134.833 12.7533C134.816 12.9709 134.773 13.222 134.704 13.5065L124.197 13.5317V11.071L133.125 11.0459L131.754 12.0753C131.719 11.3555 131.581 10.7529 131.34 10.2675C131.115 9.78202 130.779 9.41376 130.33 9.16266C129.899 8.89483 129.364 8.76092 128.726 8.76092C128.053 8.76092 127.466 8.91157 126.966 9.21288C126.465 9.49745 126.077 9.90757 125.801 10.4432C125.542 10.9622 125.413 11.5815 125.413 12.3013C125.413 13.0378 125.551 13.6823 125.827 14.2347C126.12 14.7704 126.534 15.1889 127.069 15.4902C127.604 15.7747 128.225 15.917 128.933 15.917C129.571 15.917 130.149 15.8166 130.667 15.6157C131.184 15.3981 131.633 15.0801 132.012 14.6616L134.005 16.595C133.401 17.2813 132.659 17.8002 131.779 18.1517C130.917 18.5033 129.976 18.679 128.959 18.679Z" fill="black"/>
<path d="M145.393 18.4279V11.4727C145.393 10.7529 145.16 10.167 144.694 9.71507C144.228 9.2631 143.624 9.03712 142.882 9.03712C142.399 9.03712 141.968 9.13756 141.588 9.33843C141.209 9.5393 140.907 9.82387 140.683 10.1921C140.476 10.5604 140.372 10.9873 140.372 11.4727L139.052 10.8199C139.052 9.86572 139.259 9.03712 139.673 8.33406C140.105 7.61427 140.691 7.05349 141.433 6.65175C142.192 6.25 143.046 6.04913 143.995 6.04913C144.91 6.04913 145.729 6.27511 146.454 6.72707C147.178 7.1623 147.748 7.73981 148.162 8.45961C148.576 9.16266 148.783 9.92431 148.783 10.7445V18.4279H145.393ZM136.982 18.4279V6.30022H140.372V18.4279H136.982Z" fill="black"/>
<path d="M153.2 18.4279V1.25328H156.59V18.4279H153.2ZM150.275 9.18777V6.30022H159.514V9.18777H150.275Z" fill="black"/>
<path d="M172.118 18.679C170.651 18.679 169.392 18.4363 168.339 17.9509C167.304 17.4654 166.364 16.7373 165.518 15.7664L167.847 13.5065C168.382 14.1929 169.003 14.7285 169.711 15.1135C170.418 15.4818 171.281 15.6659 172.299 15.6659C173.213 15.6659 173.938 15.4902 174.473 15.1386C175.025 14.7871 175.301 14.3017 175.301 13.6823C175.301 13.1467 175.146 12.7114 174.835 12.3766C174.524 12.0418 174.11 11.7573 173.593 11.5229C173.092 11.2886 172.532 11.0793 171.911 10.8952C171.307 10.6943 170.694 10.4683 170.073 10.2172C169.469 9.96616 168.908 9.65648 168.391 9.28821C167.891 8.9032 167.485 8.41776 167.175 7.83188C166.864 7.22926 166.709 6.47598 166.709 5.57205C166.709 4.50073 166.976 3.58843 167.511 2.83515C168.046 2.08188 168.779 1.50437 169.711 1.10262C170.642 0.700873 171.695 0.5 172.868 0.5C174.11 0.5 175.232 0.725983 176.232 1.17795C177.233 1.62991 178.053 2.21579 178.691 2.93559L176.362 5.19542C175.827 4.62627 175.275 4.20779 174.706 3.93996C174.153 3.67213 173.524 3.53821 172.816 3.53821C172.005 3.53821 171.367 3.68886 170.901 3.99017C170.435 4.29148 170.202 4.72671 170.202 5.29585C170.202 5.7813 170.358 6.17467 170.668 6.47598C170.979 6.77729 171.384 7.03675 171.885 7.25437C172.402 7.47198 172.963 7.68122 173.567 7.8821C174.188 8.08297 174.8 8.30895 175.404 8.56004C176.025 8.81114 176.586 9.13756 177.087 9.5393C177.604 9.94105 178.018 10.46 178.329 11.0961C178.639 11.7154 178.795 12.4854 178.795 13.4061C178.795 15.0466 178.199 16.3355 177.009 17.2729C175.818 18.2103 174.188 18.679 172.118 18.679Z" fill="black"/>
<path d="M184.815 18.5284L179.588 6.30022H183.263L186.73 15.6408H185.488L189.086 6.30022H192.786L187.222 18.5033L184.815 18.5284ZM181.347 23.5L185.152 15.691L187.222 18.5033L184.945 23.5H181.347Z" fill="black"/>
<path d="M198.345 18.7041C197.638 18.7041 196.939 18.6121 196.249 18.4279C195.576 18.2438 194.955 17.9927 194.385 17.6747C193.816 17.3399 193.324 16.9381 192.91 16.4694L194.929 14.4858C195.36 14.9545 195.861 15.306 196.43 15.5404C196.999 15.7747 197.629 15.8919 198.319 15.8919C198.871 15.8919 199.285 15.8166 199.561 15.6659C199.855 15.5153 200.001 15.2893 200.001 14.988C200.001 14.6532 199.846 14.3937 199.536 14.2096C199.242 14.0255 198.854 13.8748 198.371 13.7576C197.888 13.6237 197.379 13.4814 196.844 13.3308C196.326 13.1634 195.826 12.9541 195.343 12.7031C194.86 12.4352 194.463 12.0753 194.153 11.6234C193.859 11.1547 193.713 10.552 193.713 9.8155C193.713 9.04549 193.902 8.37591 194.282 7.80677C194.679 7.23763 195.239 6.79403 195.964 6.47598C196.689 6.15793 197.543 5.99891 198.526 5.99891C199.561 5.99891 200.493 6.17467 201.321 6.5262C202.167 6.87773 202.865 7.40502 203.418 8.10808L201.373 10.0917C200.993 9.63974 200.562 9.31332 200.079 9.11245C199.613 8.91157 199.104 8.81114 198.552 8.81114C198.052 8.81114 197.664 8.88646 197.388 9.03712C197.129 9.18777 196.999 9.39702 196.999 9.66485C196.999 9.96616 197.146 10.2005 197.439 10.3679C197.75 10.5353 198.147 10.686 198.63 10.8199C199.113 10.937 199.613 11.0793 200.131 11.2467C200.666 11.3974 201.166 11.615 201.632 11.8996C202.115 12.1841 202.503 12.5608 202.796 13.0295C203.107 13.4982 203.262 14.1008 203.262 14.8373C203.262 16.0258 202.822 16.9716 201.942 17.6747C201.062 18.361 199.863 18.7041 198.345 18.7041Z" fill="black"/>
<path d="M207.386 18.4279V1.25328H210.776V18.4279H207.386ZM204.461 9.18777V6.30022H213.701V9.18777H204.461Z" fill="black"/>
<path d="M221.282 18.679C219.971 18.679 218.806 18.4112 217.788 17.8755C216.77 17.3231 215.96 16.5699 215.356 15.6157C214.769 14.6616 214.476 13.5735 214.476 12.3515C214.476 11.1463 214.76 10.075 215.33 9.13756C215.916 8.18341 216.71 7.43013 217.711 6.87773C218.711 6.30859 219.824 6.02402 221.049 6.02402C222.257 6.02402 223.318 6.29185 224.232 6.82751C225.164 7.34643 225.889 8.06623 226.406 8.9869C226.941 9.89083 227.209 10.9203 227.209 12.0753C227.209 12.2929 227.191 12.5189 227.157 12.7533C227.14 12.9709 227.097 13.222 227.028 13.5065L216.52 13.5317V11.071L225.449 11.0459L224.077 12.0753C224.043 11.3555 223.905 10.7529 223.663 10.2675C223.439 9.78202 223.102 9.41376 222.654 9.16266C222.222 8.89483 221.688 8.76092 221.049 8.76092C220.376 8.76092 219.79 8.91157 219.289 9.21288C218.789 9.49745 218.401 9.90757 218.125 10.4432C217.866 10.9622 217.737 11.5815 217.737 12.3013C217.737 13.0378 217.875 13.6823 218.151 14.2347C218.444 14.7704 218.858 15.1889 219.393 15.4902C219.928 15.7747 220.549 15.917 221.256 15.917C221.895 15.917 222.473 15.8166 222.99 15.6157C223.508 15.3981 223.956 15.0801 224.336 14.6616L226.329 16.595C225.725 17.2813 224.983 17.8002 224.103 18.1517C223.24 18.5033 222.3 18.679 221.282 18.679Z" fill="black"/>
<path d="M229.305 18.4279V6.30022H232.696V18.4279H229.305ZM237.458 18.4279V11.2718C237.458 10.5688 237.225 10.0247 236.759 9.63974C236.31 9.23799 235.749 9.03712 235.077 9.03712C234.628 9.03712 234.223 9.12919 233.86 9.31332C233.498 9.48071 233.213 9.73181 233.006 10.0666C232.799 10.4014 232.696 10.8031 232.696 11.2718L231.376 10.6441C231.376 9.7067 231.583 8.89483 231.997 8.20852C232.428 7.5222 233.006 6.99491 233.731 6.62664C234.455 6.24163 235.275 6.04913 236.189 6.04913C237.052 6.04913 237.837 6.24163 238.545 6.62664C239.252 6.99491 239.813 7.5222 240.227 8.20852C240.641 8.87809 240.848 9.68996 240.848 10.6441V18.4279H237.458ZM245.61 18.4279V11.2718C245.61 10.5688 245.377 10.0247 244.911 9.63974C244.462 9.23799 243.902 9.03712 243.229 9.03712C242.797 9.03712 242.392 9.12919 242.012 9.31332C241.65 9.48071 241.365 9.73181 241.158 10.0666C240.951 10.4014 240.848 10.8031 240.848 11.2718L238.907 10.8199C238.976 9.84898 239.243 9.01201 239.709 8.30895C240.175 7.58916 240.787 7.03675 241.547 6.65175C242.306 6.25 243.151 6.04913 244.083 6.04913C245.014 6.04913 245.851 6.24163 246.593 6.62664C247.335 6.99491 247.922 7.53057 248.353 8.23362C248.784 8.93668 249 9.77365 249 10.7445V18.4279H245.61Z" fill="black"/>
<path d="M61.7521 41.1977V27.3234H63.6449V41.1977H61.7521ZM57 28.682V26.9117H68.3769V28.682H57Z" fill="#7E7E7E"/>
<path d="M72.0853 41.4036C71.1322 41.4036 70.273 41.184 69.5079 40.7449C68.7427 40.292 68.1386 39.6813 67.6956 38.9128C67.2526 38.1443 67.0311 37.2728 67.0311 36.2985C67.0311 35.3378 67.2459 34.4733 67.6755 33.7048C68.1185 32.9363 68.7091 32.3324 69.4475 31.8933C70.1992 31.4404 71.0382 31.214 71.9645 31.214C72.8505 31.214 73.6291 31.4198 74.3003 31.8315C74.9849 32.2432 75.5152 32.8127 75.891 33.5401C76.2803 34.2674 76.475 35.0908 76.475 36.0103C76.475 36.1475 76.4683 36.2985 76.4548 36.4632C76.4414 36.6141 76.4146 36.7925 76.3743 36.9984H68.2997V35.4545H75.4078L74.7433 36.0515C74.7433 35.3927 74.6292 34.8369 74.4009 34.3841C74.1727 33.9175 73.8506 33.5607 73.4344 33.3137C73.0183 33.0529 72.5149 32.9225 71.9242 32.9225C71.3067 32.9225 70.763 33.0598 70.2932 33.3342C69.8233 33.6087 69.4609 33.993 69.2058 34.487C68.9508 34.981 68.8232 35.5643 68.8232 36.2367C68.8232 36.9229 68.9575 37.5267 69.226 38.0482C69.4944 38.556 69.877 38.954 70.3737 39.2421C70.8704 39.5166 71.4409 39.6538 72.0853 39.6538C72.6223 39.6538 73.1122 39.5578 73.5552 39.3657C74.0116 39.1735 74.4009 38.8853 74.7231 38.5011L75.891 39.7156C75.4346 40.2645 74.8708 40.6831 74.1996 40.9713C73.5418 41.2595 72.837 41.4036 72.0853 41.4036Z" fill="#7E7E7E"/>
<path d="M82.8205 41.4036C81.8809 41.4036 81.0284 41.1771 80.2632 40.7243C79.5115 40.2714 78.9141 39.6607 78.4711 38.8922C78.0416 38.11 77.8268 37.2454 77.8268 36.2985C77.8268 35.3378 78.0416 34.4733 78.4711 33.7048C78.9141 32.9363 79.5115 32.3324 80.2632 31.8933C81.0284 31.4404 81.8809 31.214 82.8205 31.214C83.5589 31.214 84.2435 31.3581 84.8744 31.6463C85.5054 31.9207 86.049 32.3256 86.5055 32.8608L85.2973 34.0959C85.002 33.7391 84.6395 33.4715 84.2099 33.2931C83.7938 33.1009 83.3307 33.0049 82.8205 33.0049C82.2165 33.0049 81.6795 33.149 81.2096 33.4372C80.7398 33.7116 80.3706 34.0959 80.1022 34.5899C79.8337 35.084 79.6994 35.6535 79.6994 36.2985C79.6994 36.9435 79.8337 37.513 80.1022 38.007C80.3706 38.5011 80.7398 38.8922 81.2096 39.1804C81.6795 39.4686 82.2165 39.6127 82.8205 39.6127C83.3307 39.6127 83.7938 39.5235 84.2099 39.3451C84.6395 39.1529 85.0087 38.8785 85.3174 38.5217L86.5055 39.7568C86.0625 40.2783 85.5188 40.6831 84.8744 40.9713C84.2435 41.2595 83.5589 41.4036 82.8205 41.4036Z" fill="#7E7E7E"/>
<path d="M95.0685 41.1977V35.4957C95.0685 34.7546 94.8403 34.1439 94.3839 33.6636C93.9275 33.1833 93.3368 32.9431 92.6119 32.9431C92.1286 32.9431 91.6991 33.0529 91.3232 33.2725C90.9473 33.4921 90.652 33.794 90.4372 34.1782C90.2224 34.5625 90.115 35.0016 90.115 35.4957L89.37 35.0634C89.37 34.3223 89.5311 33.6636 89.8533 33.0872C90.1754 32.5108 90.6251 32.058 91.2024 31.7286C91.7796 31.3855 92.4307 31.214 93.1556 31.214C93.8805 31.214 94.5181 31.3787 95.0685 31.708C95.6323 32.0374 96.0753 32.4971 96.3975 33.0872C96.7197 33.6773 96.8808 34.3566 96.8808 35.1251V41.1977H95.0685ZM88.3028 41.1977V26.5H90.115V41.1977H88.3028Z" fill="#7E7E7E"/>
<path d="M106.1 41.1977V35.4957C106.1 34.7546 105.872 34.1439 105.416 33.6636C104.959 33.1833 104.368 32.9431 103.644 32.9431C103.16 32.9431 102.731 33.0529 102.355 33.2725C101.979 33.4921 101.684 33.794 101.469 34.1782C101.254 34.5625 101.147 35.0016 101.147 35.4957L100.402 35.0634C100.402 34.3223 100.563 33.6636 100.885 33.0872C101.207 32.5108 101.657 32.058 102.234 31.7286C102.811 31.3855 103.462 31.214 104.187 31.214C104.912 31.214 105.55 31.3992 106.1 31.7698C106.664 32.1403 107.107 32.6275 107.429 33.2313C107.751 33.8214 107.912 34.4527 107.912 35.1251V41.1977H106.1ZM99.3344 41.1977V31.4198H101.147V41.1977H99.3344Z" fill="#7E7E7E"/>
<path d="M114.736 41.4036C113.796 41.4036 112.95 41.1771 112.198 40.7243C111.447 40.2714 110.849 39.6607 110.406 38.8922C109.963 38.11 109.742 37.2385 109.742 36.2779C109.742 35.331 109.963 34.4801 110.406 33.7254C110.849 32.9568 111.447 32.3462 112.198 31.8933C112.95 31.4404 113.796 31.214 114.736 31.214C115.662 31.214 116.501 31.4404 117.253 31.8933C118.018 32.3324 118.622 32.9363 119.065 33.7048C119.508 34.4733 119.729 35.331 119.729 36.2779C119.729 37.2385 119.508 38.11 119.065 38.8922C118.622 39.6607 118.018 40.2714 117.253 40.7243C116.501 41.1771 115.662 41.4036 114.736 41.4036ZM114.736 39.6127C115.34 39.6127 115.877 39.4686 116.346 39.1804C116.816 38.8922 117.185 38.5011 117.454 38.007C117.722 37.4993 117.857 36.9229 117.857 36.2779C117.857 35.6466 117.716 35.084 117.434 34.5899C117.165 34.0959 116.796 33.7116 116.326 33.4372C115.87 33.149 115.34 33.0049 114.736 33.0049C114.131 33.0049 113.595 33.149 113.125 33.4372C112.655 33.7116 112.286 34.0959 112.017 34.5899C111.749 35.084 111.614 35.6466 111.614 36.2779C111.614 36.9229 111.749 37.4993 112.017 38.007C112.286 38.5011 112.655 38.8922 113.125 39.1804C113.595 39.4686 114.131 39.6127 114.736 39.6127Z" fill="#7E7E7E"/>
<path d="M121.771 41.1977V26.5H123.584V41.1977H121.771Z" fill="#7E7E7E"/>
<path d="M130.605 41.4036C129.665 41.4036 128.819 41.1771 128.067 40.7243C127.316 40.2714 126.718 39.6607 126.275 38.8922C125.832 38.11 125.611 37.2385 125.611 36.2779C125.611 35.331 125.832 34.4801 126.275 33.7254C126.718 32.9568 127.316 32.3462 128.067 31.8933C128.819 31.4404 129.665 31.214 130.605 31.214C131.531 31.214 132.37 31.4404 133.122 31.8933C133.887 32.3324 134.491 32.9363 134.934 33.7048C135.377 34.4733 135.598 35.331 135.598 36.2779C135.598 37.2385 135.377 38.11 134.934 38.8922C134.491 39.6607 133.887 40.2714 133.122 40.7243C132.37 41.1771 131.531 41.4036 130.605 41.4036ZM130.605 39.6127C131.209 39.6127 131.746 39.4686 132.215 39.1804C132.685 38.8922 133.054 38.5011 133.323 38.007C133.591 37.4993 133.726 36.9229 133.726 36.2779C133.726 35.6466 133.585 35.084 133.303 34.5899C133.034 34.0959 132.665 33.7116 132.195 33.4372C131.739 33.149 131.209 33.0049 130.605 33.0049C130.001 33.0049 129.464 33.149 128.994 33.4372C128.524 33.7116 128.155 34.0959 127.886 34.5899C127.618 35.084 127.483 35.6466 127.483 36.2779C127.483 36.9229 127.618 37.4993 127.886 38.007C128.155 38.5011 128.524 38.8922 128.994 39.1804C129.464 39.4686 130.001 39.6127 130.605 39.6127Z" fill="#7E7E7E"/>
<path d="M141.607 45.5C140.627 45.5 139.755 45.3147 138.989 44.9442C138.238 44.5737 137.634 44.0522 137.177 43.3797L138.345 42.1652C138.734 42.673 139.197 43.0572 139.734 43.318C140.271 43.5925 140.909 43.7297 141.647 43.7297C142.627 43.7297 143.399 43.4621 143.963 42.9269C144.54 42.4054 144.829 41.6986 144.829 40.8066V38.3776L145.151 36.175L144.829 33.993V31.4198H146.641V40.8066C146.641 41.7398 146.426 42.5563 145.997 43.2562C145.581 43.9561 144.99 44.5051 144.225 44.903C143.473 45.301 142.601 45.5 141.607 45.5ZM141.607 41.033C140.735 41.033 139.949 40.8203 139.251 40.3949C138.567 39.9695 138.023 39.3862 137.62 38.6452C137.217 37.8904 137.016 37.0464 137.016 36.1132C137.016 35.18 137.217 34.3498 137.62 33.6224C138.023 32.8814 138.567 32.2981 139.251 31.8727C139.949 31.4336 140.735 31.214 141.607 31.214C142.359 31.214 143.023 31.3649 143.601 31.6668C144.178 31.9688 144.634 32.3942 144.97 32.9431C145.319 33.4783 145.507 34.1096 145.534 34.8369V37.4307C145.493 38.1443 145.299 38.7756 144.95 39.3245C144.614 39.8597 144.158 40.2783 143.58 40.5802C143.003 40.8821 142.345 41.033 141.607 41.033ZM141.97 39.2833C142.56 39.2833 143.077 39.1529 143.52 38.8922C143.976 38.6315 144.326 38.2678 144.567 37.8012C144.809 37.3209 144.93 36.7651 144.93 36.1338C144.93 35.5025 144.802 34.9536 144.547 34.487C144.305 34.0067 143.963 33.6362 143.52 33.3754C143.077 33.1009 142.554 32.9637 141.949 32.9637C141.345 32.9637 140.815 33.1009 140.359 33.3754C139.902 33.6362 139.54 34.0067 139.271 34.487C139.016 34.9536 138.889 35.4957 138.889 36.1132C138.889 36.7308 139.016 37.2797 139.271 37.76C139.54 38.2403 139.902 38.6177 140.359 38.8922C140.829 39.1529 141.365 39.2833 141.97 39.2833Z" fill="#7E7E7E"/>
<path d="M152.442 41.2801L148.294 31.4198H150.308L153.389 39.1392H152.744L155.986 31.4198H158L153.53 41.2801H152.442ZM149.704 45.2941L152.523 39.3862L153.53 41.2801L151.718 45.2941H149.704Z" fill="#7E7E7E"/>
</svg>
